<mxfile host="app.diagrams.net" modified="2022-09-27T05:39:03.930Z" agent="5.0 (Macintosh; Intel Mac OS X 10_15_7) AppleWebKit/537.36 (KHTML, like Gecko) Chrome/105.0.0.0 Safari/537.36" etag="fupmYGKcErctneGeNsib" version="20.3.6" type="github">
  <diagram id="AMD06PHQa7dnP_c8CgqD" name="第 1 页">
    <mxGraphModel dx="1426" dy="801" grid="1" gridSize="10" guides="1" tooltips="1" connect="1" arrows="1" fold="1" page="1" pageScale="1" pageWidth="827" pageHeight="1169" math="0" shadow="0">
      <root>
        <mxCell id="0" />
        <mxCell id="1" parent="0" />
        <mxCell id="61QRLzdkr4EgjuDQmAYJ-12" style="edgeStyle=orthogonalEdgeStyle;rounded=0;sketch=1;hachureGap=4;jiggle=2;orthogonalLoop=1;jettySize=auto;html=1;exitX=0.5;exitY=0;exitDx=0;exitDy=0;entryX=0.5;entryY=1;entryDx=0;entryDy=0;fontFamily=Architects Daughter;fontSource=https%3A%2F%2Ffonts.googleapis.com%2Fcss%3Ffamily%3DArchitects%2BDaughter;fontSize=16;" edge="1" parent="1" source="61QRLzdkr4EgjuDQmAYJ-2" target="61QRLzdkr4EgjuDQmAYJ-3">
          <mxGeometry relative="1" as="geometry" />
        </mxCell>
        <mxCell id="61QRLzdkr4EgjuDQmAYJ-2" value="数据中台" style="rounded=0;whiteSpace=wrap;html=1;sketch=1;" vertex="1" parent="1">
          <mxGeometry x="500" y="350" width="280" height="180" as="geometry" />
        </mxCell>
        <mxCell id="61QRLzdkr4EgjuDQmAYJ-6" style="edgeStyle=orthogonalEdgeStyle;rounded=0;sketch=1;hachureGap=4;jiggle=2;orthogonalLoop=1;jettySize=auto;html=1;exitX=1;exitY=0.5;exitDx=0;exitDy=0;fontFamily=Architects Daughter;fontSource=https%3A%2F%2Ffonts.googleapis.com%2Fcss%3Ffamily%3DArchitects%2BDaughter;fontSize=16;" edge="1" parent="1" source="61QRLzdkr4EgjuDQmAYJ-4" target="61QRLzdkr4EgjuDQmAYJ-2">
          <mxGeometry relative="1" as="geometry" />
        </mxCell>
        <mxCell id="61QRLzdkr4EgjuDQmAYJ-10" value="采集" style="edgeLabel;html=1;align=center;verticalAlign=middle;resizable=0;points=[];fontSize=20;fontFamily=Architects Daughter;" vertex="1" connectable="0" parent="61QRLzdkr4EgjuDQmAYJ-6">
          <mxGeometry x="0.1322" y="2" relative="1" as="geometry">
            <mxPoint as="offset" />
          </mxGeometry>
        </mxCell>
        <mxCell id="61QRLzdkr4EgjuDQmAYJ-4" value="业务中台" style="rounded=0;whiteSpace=wrap;html=1;sketch=1;hachureGap=4;jiggle=2;fontFamily=Architects Daughter;fontSource=https%3A%2F%2Ffonts.googleapis.com%2Fcss%3Ffamily%3DArchitects%2BDaughter;fontSize=20;" vertex="1" parent="1">
          <mxGeometry x="40" y="350" width="300" height="180" as="geometry" />
        </mxCell>
        <mxCell id="61QRLzdkr4EgjuDQmAYJ-3" value="经营管理平台" style="rounded=0;whiteSpace=wrap;html=1;sketch=1;hachureGap=4;jiggle=2;fontFamily=Architects Daughter;fontSource=https%3A%2F%2Ffonts.googleapis.com%2Fcss%3Ffamily%3DArchitects%2BDaughter;fontSize=20;" vertex="1" parent="1">
          <mxGeometry x="270" y="60" width="230" height="100" as="geometry" />
        </mxCell>
        <mxCell id="61QRLzdkr4EgjuDQmAYJ-5" value="用户中心" style="rounded=0;whiteSpace=wrap;html=1;sketch=1;" vertex="1" parent="1">
          <mxGeometry x="60" y="460" width="120" height="60" as="geometry" />
        </mxCell>
        <mxCell id="61QRLzdkr4EgjuDQmAYJ-8" style="edgeStyle=orthogonalEdgeStyle;rounded=0;sketch=1;hachureGap=4;jiggle=2;orthogonalLoop=1;jettySize=auto;html=1;entryX=0.5;entryY=1;entryDx=0;entryDy=0;fontFamily=Architects Daughter;fontSource=https%3A%2F%2Ffonts.googleapis.com%2Fcss%3Ffamily%3DArchitects%2BDaughter;fontSize=16;" edge="1" parent="1" source="61QRLzdkr4EgjuDQmAYJ-7" target="61QRLzdkr4EgjuDQmAYJ-2">
          <mxGeometry relative="1" as="geometry" />
        </mxCell>
        <mxCell id="61QRLzdkr4EgjuDQmAYJ-9" value="采集" style="edgeLabel;html=1;align=center;verticalAlign=middle;resizable=0;points=[];fontSize=20;fontFamily=Architects Daughter;" vertex="1" connectable="0" parent="61QRLzdkr4EgjuDQmAYJ-8">
          <mxGeometry x="-0.1128" y="2" relative="1" as="geometry">
            <mxPoint as="offset" />
          </mxGeometry>
        </mxCell>
        <mxCell id="61QRLzdkr4EgjuDQmAYJ-7" value="外部数据源" style="rounded=0;whiteSpace=wrap;html=1;sketch=1;hachureGap=4;jiggle=2;fontFamily=Architects Daughter;fontSource=https%3A%2F%2Ffonts.googleapis.com%2Fcss%3Ffamily%3DArchitects%2BDaughter;fontSize=20;" vertex="1" parent="1">
          <mxGeometry x="585" y="660" width="130" height="70" as="geometry" />
        </mxCell>
        <mxCell id="61QRLzdkr4EgjuDQmAYJ-11" value="客货邮中心" style="rounded=0;whiteSpace=wrap;html=1;sketch=1;" vertex="1" parent="1">
          <mxGeometry x="60" y="360" width="120" height="60" as="geometry" />
        </mxCell>
        <mxCell id="61QRLzdkr4EgjuDQmAYJ-13" value="" style="shape=cylinder3;whiteSpace=wrap;html=1;boundedLbl=1;backgroundOutline=1;size=15;sketch=1;hachureGap=4;jiggle=2;fontFamily=Architects Daughter;fontSource=https%3A%2F%2Ffonts.googleapis.com%2Fcss%3Ffamily%3DArchitects%2BDaughter;fontSize=20;" vertex="1" parent="1">
          <mxGeometry x="280" y="110" width="60" height="50" as="geometry" />
        </mxCell>
        <mxCell id="61QRLzdkr4EgjuDQmAYJ-15" value="航班服务" style="rounded=0;whiteSpace=wrap;html=1;sketch=1;" vertex="1" parent="1">
          <mxGeometry x="200" y="360" width="120" height="60" as="geometry" />
        </mxCell>
        <mxCell id="61QRLzdkr4EgjuDQmAYJ-16" value="数据中心" style="rounded=0;whiteSpace=wrap;html=1;sketch=1;fillColor=#fff2cc;strokeColor=#d6b656;" vertex="1" parent="1">
          <mxGeometry x="520" y="460" width="120" height="60" as="geometry" />
        </mxCell>
        <mxCell id="61QRLzdkr4EgjuDQmAYJ-17" value="" style="shape=cylinder3;whiteSpace=wrap;html=1;boundedLbl=1;backgroundOutline=1;size=15;sketch=1;hachureGap=4;jiggle=2;fontFamily=Architects Daughter;fontSource=https%3A%2F%2Ffonts.googleapis.com%2Fcss%3Ffamily%3DArchitects%2BDaughter;fontSize=20;" vertex="1" parent="1">
          <mxGeometry x="530" y="370" width="60" height="80" as="geometry" />
        </mxCell>
        <mxCell id="61QRLzdkr4EgjuDQmAYJ-20" value="" style="shape=cylinder3;whiteSpace=wrap;html=1;boundedLbl=1;backgroundOutline=1;size=15;sketch=1;hachureGap=4;jiggle=2;fontFamily=Architects Daughter;fontSource=https%3A%2F%2Ffonts.googleapis.com%2Fcss%3Ffamily%3DArchitects%2BDaughter;fontSize=20;" vertex="1" parent="1">
          <mxGeometry x="50" y="400" width="40" height="40" as="geometry" />
        </mxCell>
        <mxCell id="61QRLzdkr4EgjuDQmAYJ-21" value="" style="shape=cylinder3;whiteSpace=wrap;html=1;boundedLbl=1;backgroundOutline=1;size=15;sketch=1;hachureGap=4;jiggle=2;fontFamily=Architects Daughter;fontSource=https%3A%2F%2Ffonts.googleapis.com%2Fcss%3Ffamily%3DArchitects%2BDaughter;fontSize=20;" vertex="1" parent="1">
          <mxGeometry x="190" y="390" width="40" height="40" as="geometry" />
        </mxCell>
        <mxCell id="61QRLzdkr4EgjuDQmAYJ-22" value="" style="shape=cylinder3;whiteSpace=wrap;html=1;boundedLbl=1;backgroundOutline=1;size=15;sketch=1;hachureGap=4;jiggle=2;fontFamily=Architects Daughter;fontSource=https%3A%2F%2Ffonts.googleapis.com%2Fcss%3Ffamily%3DArchitects%2BDaughter;fontSize=20;" vertex="1" parent="1">
          <mxGeometry x="50" y="490" width="40" height="40" as="geometry" />
        </mxCell>
      </root>
    </mxGraphModel>
  </diagram>
</mxfile>
